<?xml version="1.0" standalone="no"?><!DOCTYPE svg PUBLIC "-//W3C//DTD SVG 1.1//EN" "http://www.w3.org/Graphics/SVG/1.1/DTD/svg11.dtd"><svg t="1769702984878" class="icon" viewBox="0 0 1024 1024" version="1.1" xmlns="http://www.w3.org/2000/svg" p-id="21955" xmlns:xlink="http://www.w3.org/1999/xlink" width="200" height="200"><path d="M1005.952 248.32c5.76 0 10.496 4.736 10.496 10.496V305.92c0 5.76-4.736 10.496-10.496 10.496H822.144l2.304 14.976c2.688 17.152 3.84 31.488 3.84 45.056 0 84.48-32.896 163.968-92.672 223.616-59.648 59.776-139.136 92.672-223.616 92.672-84.48 0-163.968-32.896-223.616-92.672s-92.672-139.136-92.672-223.616c0-13.568 1.28-27.904 3.84-45.056l2.304-14.976H18.048c-5.76 0-10.496-4.736-10.496-10.496v-47.104c0-5.76 4.736-10.496 10.496-10.496h987.904zM512 624.768c136.96 0 248.32-111.36 248.32-248.32 0-15.488-1.792-31.36-5.76-49.792l-2.176-10.368H271.616l-2.176 10.368c-3.84 18.432-5.76 34.304-5.76 49.792 0 136.96 111.36 248.32 248.32 248.32zM212.608 632.064c2.816 0 5.376 1.152 7.424 3.072l33.28 33.28c4.096 4.096 4.096 10.752 0 14.848l-99.84 99.84c-1.92 1.92-4.608 3.072-7.424 3.072s-5.376-1.152-7.424-3.072l-33.28-33.28c-1.92-1.92-3.072-4.608-3.072-7.424 0-2.816 1.152-5.376 3.072-7.424l99.84-99.84c1.92-1.92 4.608-3.072 7.424-3.072zM535.552 765.824c5.76 0 10.496 4.736 10.496 10.496v141.184c0 5.76-4.736 10.496-10.496 10.496h-47.104c-5.76 0-10.496-4.736-10.496-10.496V776.32c0-5.76 4.736-10.496 10.496-10.496h47.104zM811.392 632.064c2.816 0 5.376 1.152 7.424 3.072l99.84 99.84c4.096 4.096 4.096 10.752 0 14.848l-33.28 33.28c-1.92 1.92-4.608 3.072-7.424 3.072-2.816 0-5.376-1.152-7.424-3.072l-99.84-99.84c-1.92-1.92-3.072-4.608-3.072-7.424 0-2.816 1.152-5.376 3.072-7.424l33.28-33.28c2.048-1.92 4.608-3.072 7.424-3.072zM864.896 96c5.76 0 10.496 4.736 10.496 10.496V153.6c0 5.76-4.736 10.496-10.496 10.496H159.104c-5.76 0-10.496-4.736-10.496-10.496V106.496c0-5.76 4.736-10.496 10.496-10.496h705.792z" fill="#ffffff" p-id="21956"></path></svg>