<?xml version="1.0" standalone="no"?><!DOCTYPE svg PUBLIC "-//W3C//DTD SVG 1.1//EN" "http://www.w3.org/Graphics/SVG/1.1/DTD/svg11.dtd"><svg t="1769609859394" class="icon" viewBox="0 0 1024 1024" version="1.1" xmlns="http://www.w3.org/2000/svg" p-id="25588" xmlns:xlink="http://www.w3.org/1999/xlink" width="200" height="200"><path d="M761.6 288.64c-26.24 0-48 21.76-48 48v512c0 26.24 21.76 48 48 48s48-21.76 48-48v-512c0-26.24-21.76-48-48-48zM512 96.64c-26.24 0-48 21.76-48 48v704c0 26.24 21.76 48 48 48s48-21.76 48-48v-704c0-26.24-21.76-48-48-48zM249.6 416.64c-26.24 0-48 21.76-48 48v384c0 26.24 21.76 48 48 48s48-21.76 48-48v-384c0-26.24-21.76-48-48-48z" p-id="25589" fill="#ffffff"></path></svg>