<?xml version="1.0" standalone="no"?><!DOCTYPE svg PUBLIC "-//W3C//DTD SVG 1.1//EN" "http://www.w3.org/Graphics/SVG/1.1/DTD/svg11.dtd"><svg t="1769611467683" class="icon" viewBox="0 0 1024 1024" version="1.1" xmlns="http://www.w3.org/2000/svg" p-id="36225" xmlns:xlink="http://www.w3.org/1999/xlink" width="200" height="200"><path d="M531.38917625 68.1976475a27.27529406 27.27529406 0 1 0-38.56941188 38.62588219 27.27529406 27.27529406 0 0 0 38.56941188-38.62588219z m114.24 20.16a27.27529406 27.27529406 0 1 0-47.3223525 27.21882281 27.27529406 27.27529406 0 0 0 47.3223525-27.21882281zM415.90682375 78.41882375a27.27529406 27.27529406 0 1 0-27.33176531 47.20941188 27.27529406 27.27529406 0 0 0 27.33176531-47.20941188z m335.15294062 58.95529406a27.21882375 27.21882375 0 1 0-52.74352874 14.11764657 27.33176437 27.33176437 0 1 0 52.74352875-14.11764657z m-444.02823468-19.2L302.06211781 117.27058812a27.21882375 27.21882375 0 1 0 4.91294063 0.84705938zM850.95623562 512.45176437a339.5576475 339.5576475 0 0 0-209.16705937-313.41176437 338.48470594 338.48470594 0 0 0-442.72941187 183.58588219 339.5576475 339.5576475 0 0 0 73.46823562 369.71294156 338.5976475 338.5976475 0 0 0 479.15294156 0A339.38823562 339.38823562 0 0 0 850.95623562 512.50823562zM239.26682375 212.14117625a27.33176437 27.33176437 0 1 0-54.60705937 0 27.33176437 27.33176437 0 0 0 54.60705937 0z m600.2823525 0a27.33176437 27.33176437 0 1 0-54.66352875 0 27.33176437 27.33176437 0 0 0 54.72 0zM229.77976438 512.45176437c0-74.93647031 29.76-146.82352969 82.67294156-199.90588218a282.18352969 282.18352969 0 0 1 399.36 0 282.86117625 282.86117625 0 0 1 0 399.81176531 282.18352969 282.18352969 0 0 1-399.36 0A282.86117625 282.86117625 0 0 1 229.77976438 512.56470594zM171.21976438 292.89411781a27.33176437 27.33176437 0 1 0-52.80000001 14.17411781 27.33176437 27.33176437 0 0 0 52.8-14.1176475z m715.65176531-19.2l-4.91294156-0.73411781a27.21882375 27.21882375 0 1 0 4.91294156 0.73411781zM317.87388219 512.84705844c0 105.54352969 86.79529406 191.43529406 193.46823562 191.43529406 106.78588219 0 193.58117625-85.89176437 193.58117625-191.43529406 0-105.6-86.79529406-191.43529406-193.46823562-191.43529406-106.78588219 0-193.58117625 85.83529406-193.58117625 191.43529406zM935.66211781 378.89882375a27.27529406 27.27529406 0 1 0-27.21882375 47.20941188 27.27529406 27.27529406 0 0 0 27.21882375-47.20941188zM125.76094156 388.89411781a27.33176437 27.33176437 0 1 0-47.32235344 27.27529407 27.33176437 27.33176437 0 0 0 47.32235344-27.27529407z m268.8 123.95294063c0-63.81176438 52.34823563-115.59529406 116.89411688-115.59529407 64.37647031 0 116.8376475 51.78352969 116.8376475 115.59529407 0 63.69882375-52.5176475 115.53882375-116.89411782 115.53882375a116.16 116.16 0 0 1-116.89411781-115.53882375h0.05647125zM106.95623563 493.25176437a27.27529406 27.27529406 0 1 0-38.62588313 38.51294157 27.27529406 27.27529406 0 0 0 38.62588313-38.51294157z m848.97882281 0a27.27529406 27.27529406 0 1 0-38.62588219 38.51294157 27.27529406 27.27529406 0 0 0 38.62588219-38.51294157z m-10.22117625 115.65176532a27.27529406 27.27529406 0 1 0-47.3223525 27.21882281 27.27529406 27.27529406 0 0 0 47.3223525-27.21882281zM115.70917625 598.79529406a27.33176437 27.33176437 0 1 0-27.33176437 47.26588219 27.33176437 27.33176437 0 0 0 27.33176437-47.26588219z m790.7576475 119.04a27.38823563 27.38823563 0 0 0-33.43058812-19.36941187 27.1623525 27.1623525 0 0 0-19.31294157 33.43058812 27.33176437 27.33176437 0 1 0 52.74352969-14.11764656z m-754.84235344-19.2l-4.91294062-0.84705844a27.21882375 27.21882375 0 1 0 4.91294062 0.79058813z m87.64235344 114.35294156a27.33176437 27.33176437 0 1 0-54.66352969 0 27.33176437 27.33176437 0 0 0 54.66352969 0z m600.2823525 0a27.27529406 27.27529406 0 1 0-54.60705844 0 27.27529406 27.27529406 0 0 0 54.55058813 0zM326.5703525 873.41176437a27.33176437 27.33176437 0 0 0-53.42117625 3.5576475 27.33176437 27.33176437 0 1 0 53.42117625-3.5576475z m404.78117719-19.2l-4.91294156-0.79058812a27.21882375 27.21882375 0 1 0 4.91294156 0.73411781z m-305.50588219 55.17176532a27.33176437 27.33176437 0 1 0-47.37882375 27.27529406 27.33176437 27.33176437 0 0 0 47.43529406-27.27529406z m209.73176438-9.99529407a27.21882375 27.21882375 0 1 0-27.27529407 47.26588219 27.21882375 27.21882375 0 0 0 27.27529407-47.26588219z m-104.24470594 18.80470594a27.33176437 27.33176437 0 1 0-40.82823563 36.42352875 27.33176437 27.33176437 0 0 0 40.82823563-36.42352875z" fill="#ffffff" p-id="36226"></path></svg>