<?xml version="1.0" standalone="no"?><!DOCTYPE svg PUBLIC "-//W3C//DTD SVG 1.1//EN" "http://www.w3.org/Graphics/SVG/1.1/DTD/svg11.dtd"><svg t="1769708307133" class="icon" viewBox="0 0 1028 1024" version="1.1" xmlns="http://www.w3.org/2000/svg" p-id="29412" xmlns:xlink="http://www.w3.org/1999/xlink" width="200.78125" height="200"><path d="M93.602933 1024a93.602933 93.602933 0 0 1-92.53012-107.281299L26.820325 743.995809a94.94395 94.94395 0 0 1 26.820325-53.640649L684.991095 59.004715a201.152436 201.152436 0 0 1 284.563646 284.295442L337.936092 975.187009a95.212153 95.212153 0 0 1-55.249869 26.820325l-177.818753 21.188056a80.460974 80.460974 0 0 1-11.264537 0.80461zM827.407019 80.460974a120.155055 120.155055 0 0 0-85.556836 35.402829L109.695128 748.018858a13.410162 13.410162 0 0 0-3.754845 7.509691L80.460974 928.251441a13.678366 13.678366 0 0 0 3.486643 11.264536 14.214772 14.214772 0 0 0 11.264536 4.023049l177.55055-21.45626a15.019382 15.019382 0 0 0 7.777894-3.754846L911.891042 286.441069A120.691461 120.691461 0 0 0 827.407019 80.460974z" fill="#ffffff" p-id="29413"></path><path d="M52.782399 748.126139l56.778628-57.04683 228.080042 227.060869-56.751808 57.046831zM560.062022 240.953798l56.751807-57.020011 228.133683 227.007229-56.751807 57.046831zM347.055003 717.175485a39.962284 39.962284 0 0 1-28.429545-68.391829l226.899948-228.240963a40.230487 40.230487 0 0 1 57.127292 56.859088L375.484547 705.374542a39.962284 39.962284 0 0 1-28.429544 11.800943z" fill="#ffffff" p-id="29414"></path><path d="M988.328968 1023.463594H100.308015a40.230487 40.230487 0 0 1 0-80.460975h888.020953a40.230487 40.230487 0 0 1 0 80.460975z" fill="#ffffff" p-id="29415"></path></svg>