<?xml version="1.0" standalone="no"?><!DOCTYPE svg PUBLIC "-//W3C//DTD SVG 1.1//EN" "http://www.w3.org/Graphics/SVG/1.1/DTD/svg11.dtd"><svg t="1769669774929" class="icon" viewBox="0 0 1024 1024" version="1.1" xmlns="http://www.w3.org/2000/svg" p-id="7604" xmlns:xlink="http://www.w3.org/1999/xlink" width="200" height="200"><path d="M457.5 450.2c-6.4-5-14.7-7.2-22.4-6.2-8 1-15.3 5.2-20.2 11.6L294.2 612.3c-10.2 13.2-7.7 32.2 5.6 42.4 5.5 4.2 12 6.3 18.4 6.3 9.1 0 18-4.1 24-11.8l102-132.5 113.6 89.2c6.3 5 14.4 7.2 22.4 6.2 8-1 15.3-5.1 20.2-11.5l118.1-152.4c10.2-13.2 7.8-32.2-5.4-42.4-13.2-10.3-32.2-7.8-42.4 5.4l-99.5 128.3-113.7-89.3zM832.1 311.9c59.4 0 107.7-48.3 107.7-107.7S891.5 96.5 832.1 96.5c-59.4 0-107.7 48.3-107.7 107.7s48.3 107.7 107.7 107.7z m0-154.9c26.1 0 47.3 21.2 47.3 47.2s-21.2 47.2-47.3 47.2c-26.1 0-47.2-21.2-47.2-47.2s21.2-47.2 47.2-47.2z" p-id="7605" fill="#ffffff"></path><path d="M878.1 379.9c-16.7 0-30.2 13.5-30.2 30.2v283.7c0 107.4-65.3 176.7-166.4 176.7H334.8c-102.7 0-166.4-67.7-166.4-176.7V368c0-107.6 65.3-177.1 166.4-177.1h292.9c16.7 0 30.2-13.5 30.2-30.2s-13.5-30.2-30.2-30.2H334.8c-135.7 0-226.9 95.5-226.9 237.6v325.8c0 141.9 91.2 237.2 226.9 237.2h346.7c135.7 0 226.9-95.3 226.9-237.2V410.1c0-16.7-13.6-30.2-30.3-30.2z" p-id="7606" fill="#ffffff"></path></svg>