<?xml version="1.0" standalone="no"?><!DOCTYPE svg PUBLIC "-//W3C//DTD SVG 1.1//EN" "http://www.w3.org/Graphics/SVG/1.1/DTD/svg11.dtd"><svg t="1768670981235" class="icon" viewBox="0 0 1024 1024" version="1.1" xmlns="http://www.w3.org/2000/svg" p-id="6634" xmlns:xlink="http://www.w3.org/1999/xlink" width="200" height="200"><path d="M512.000301 120.470588c188.536471 0 342.136471 153.6 349.003294 345.690353l0.240941 13.432471v326.113882l92.822589 0.060235a40.357647 40.357647 0 0 1 39.815529 40.96 40.598588 40.598588 0 0 1-33.91247 40.417883l-5.903059 0.481882h-292.74353C652.529242 964.427294 589.041242 1024 512.000301 1024c-77.040941 0-140.528941-59.632941-149.323294-136.372706H69.933478a40.357647 40.357647 0 0 1-39.81553-40.96c0-20.48 14.697412-37.526588 33.912471-40.417882l5.903059-0.481883H162.635595V479.533176C162.756066 281.238588 319.187125 120.470588 512.120772 120.470588z m68.367059 767.096471H443.512772l0.903529 3.493647c7.529412 24.877176 27.708235 43.971765 52.705883 49.513412l7.649882 1.204706 7.228235 0.361411a71.077647 71.077647 0 0 0 67.584-51.079529l0.783059-3.493647zM512.000301 202.330353c-144.685176 0-262.746353 117.097412-269.372235 264.192l-0.301177 13.071059v326.113882h539.286589l0.060235-326.113882c0-153.118118-120.711529-277.263059-269.673412-277.263059z" fill="#ffffff" p-id="6635"></path><path d="M521.035595 27.105882a90.352941 90.352941 0 0 0-90.352941 90.352942h180.705882a90.352941 90.352941 0 0 0-90.352941-90.352942" fill="#ffffff" p-id="6636"></path></svg>