<?xml version="1.0" standalone="no"?><!DOCTYPE svg PUBLIC "-//W3C//DTD SVG 1.1//EN" "http://www.w3.org/Graphics/SVG/1.1/DTD/svg11.dtd"><svg t="1769702878436" class="icon" viewBox="0 0 1024 1024" version="1.1" xmlns="http://www.w3.org/2000/svg" p-id="9142" xmlns:xlink="http://www.w3.org/1999/xlink" width="200" height="200"><path d="M832 704H299.52c-12.8-28.16-17.92-58.88-17.92-89.6 0-128 102.4-230.4 230.4-230.4 38.4 0 74.24 10.24 107.52 25.6 20.48 10.24 40.96 25.6 58.88 43.52A232.96 232.96 0 0 1 742.4 614.4c0 20.48 17.92 38.4 38.4 38.4S819.2 637.44 819.2 614.4c0-79.36-30.72-156.16-87.04-212.48-23.04-23.04-48.64-43.52-76.8-58.88C611.84 320 563.2 307.2 512 307.2c-168.96 0-307.2 138.24-307.2 307.2 0 30.72 5.12 58.88 12.8 89.6h-25.6c-20.48 0-38.4 17.92-38.4 38.4s17.92 38.4 38.4 38.4h640c20.48 0 38.4-17.92 38.4-38.4s-17.92-38.4-38.4-38.4zM755.2 819.2h-486.4c-15.36 0-25.6 10.24-25.6 25.6s10.24 25.6 25.6 25.6h486.4c15.36 0 25.6-10.24 25.6-25.6s-10.24-25.6-25.6-25.6zM512 281.6c15.36 0 25.6-10.24 25.6-25.6V179.2c0-15.36-10.24-25.6-25.6-25.6s-25.6 10.24-25.6 25.6v76.8c0 15.36 10.24 25.6 25.6 25.6zM793.6 409.6c7.68 0 12.8-2.56 17.92-7.68l51.2-51.2c10.24-10.24 10.24-25.6 0-35.84s-25.6-10.24-35.84 0l-51.2 51.2c-10.24 10.24-10.24 25.6 0 35.84 5.12 5.12 10.24 7.68 17.92 7.68zM212.48 401.92c5.12 5.12 10.24 7.68 17.92 7.68s12.8-2.56 17.92-7.68c10.24-10.24 10.24-25.6 0-35.84l-51.2-51.2c-10.24-10.24-25.6-10.24-35.84 0s-10.24 25.6 0 35.84l51.2 51.2z" fill="#ffffff" p-id="9143"></path><path d="M468.48 501.76c12.8-5.12 20.48-17.92 17.92-30.72-5.12-12.8-17.92-20.48-30.72-17.92-48.64 15.36-135.68 74.24-120.32 189.44 2.56 12.8 12.8 23.04 25.6 23.04h2.56c12.8-2.56 23.04-15.36 23.04-28.16-15.36-102.4 79.36-133.12 81.92-135.68z" fill="#ffffff" p-id="9144"></path></svg>