<?xml version="1.0" standalone="no"?><!DOCTYPE svg PUBLIC "-//W3C//DTD SVG 1.1//EN" "http://www.w3.org/Graphics/SVG/1.1/DTD/svg11.dtd"><svg t="1769673221033" class="icon" viewBox="0 0 1024 1024" version="1.1" xmlns="http://www.w3.org/2000/svg" p-id="23208" xmlns:xlink="http://www.w3.org/1999/xlink" width="200" height="200"><path d="M512 188.384c194.752 0 204.64 173.984 215.36 208.256 0 0 15.36 17.12 19.008 43.232 2.368 16.864-7.232 36-7.232 36s62.24 83.872 62.24 149.76c0 41.12-12.128 62.368-26.24 62.368-14.272 0-35.008-43.52-35.008-43.52s-32.512 69.408-48.768 79.392c-16.224 9.888 58.624 20.768 58.624 53.12 0 32.512-59.488 46.88-108.096 46.88-48.768 0-126.272-25.248-126.272-25.248l-28-0.864s-21.6 30.624-110.88 30.624c-89.248 0-128-24.256-128-53.12 0-38.88 56.896-44.16 56.896-44.16s-36.256-10.112-66.88-95.84c0 0-21.248 46.24-51.264 46.24 0 0-12.608-7.52-12.608-49.6 0-87.168 62.624-129.664 89.6-155.776 0 0-4.48-11.392-2.112-25.504 2.624-15.744 12-25.248 12-25.248s-3.52-18.88 9.632-34.112c2.624-42.4 33.28-202.88 228-202.88m0-64c-204.736 0-277.376 146.88-290.24 245.376-6.144 12-9.632 24.352-11.008 36a112.64 112.64 0 0 0-12.768 44.256c-35.488 32.608-87.104 88.224-87.104 181.856 0 64.992 23.872 92.768 44 104.64l15.008 8.96H189.12c-2.88 9.152-4.384 19.04-4.384 29.76 0 27.52 13.888 117.28 192 117.28 65.28 0 106.016-14.144 131.008-29.248 26.24 7.872 87.616 24.64 134.016 24.64 104.64 0 172.256-43.52 172.256-110.912 0-12-2.4-22.624-6.272-32.128 30.88-13.984 57.504-50.112 57.504-119.232 0-60.64-33.504-124.256-56.256-160.512 1.76-10.368 2.368-21.984 0.768-33.984a154.56 154.56 0 0 0-23.136-61.632l-0.736-3.744C752.384 205.504 660.128 124.384 512 124.384z" p-id="23209" fill="#ffffff"></path></svg>