<?xml version="1.0" standalone="no"?><!DOCTYPE svg PUBLIC "-//W3C//DTD SVG 1.1//EN" "http://www.w3.org/Graphics/SVG/1.1/DTD/svg11.dtd"><svg t="1769768302609" class="icon" viewBox="0 0 1024 1024" version="1.1" xmlns="http://www.w3.org/2000/svg" p-id="34367" xmlns:xlink="http://www.w3.org/1999/xlink" width="200" height="200"><path d="M830.976 177.152c-84.992-82.432-196.608-126.976-315.392-124.928-227.84 4.608-417.28 185.344-431.104 411.648-5.12 82.432 12.288 163.84 51.2 236.544L92.16 904.704v3.072c0 17.92 14.336 32.256 32.256 32.256h4.096l196.096-55.296c66.56 33.792 141.312 50.176 216.064 47.616 114.688-4.096 221.696-52.736 301.056-136.192 79.872-83.456 122.88-192.512 121.856-307.2 0-118.784-47.616-229.376-132.608-311.808z m-291.84 693.76c-66.048 2.048-132.096-12.8-190.464-43.008-1.536-1.024-2.56-1.536-3.584-2.048l-10.752-7.168-170.496 48.128 35.84-167.424v-10.752l-3.072-6.656c-1.024-2.048-2.048-4.096-3.584-6.144l-1.536-3.072-0.512-0.512c-33.28-62.464-48.64-132.608-44.032-203.776 11.776-194.56 174.592-350.208 370.688-354.304 101.888-2.048 198.144 36.352 271.36 107.52 73.216 71.168 113.664 166.4 114.688 268.288 1.536 202.24-161.792 373.248-364.544 380.928z" fill="#ffffff" p-id="34368"></path><path d="M713.728 521.728c-15.36 0-28.16 11.264-30.208 26.112h-0.512c-4.608 84.48-74.24 150.528-158.72 150.528s-154.112-66.048-158.72-150.528c-0.512-16.384-13.824-29.184-30.208-29.184-16.896 0-30.208 13.824-30.208 30.208v2.048c6.144 116.736 102.912 208.384 219.648 208.384 113.664 0 208.384-87.04 218.624-199.168 0.512-2.56 0.512-5.632 0.512-8.192 0-16.896-13.824-30.208-30.208-30.208z" fill="#ffffff" p-id="34369"></path></svg>