<?xml version="1.0" standalone="no"?><!DOCTYPE svg PUBLIC "-//W3C//DTD SVG 1.1//EN" "http://www.w3.org/Graphics/SVG/1.1/DTD/svg11.dtd"><svg t="1769609694673" class="icon" viewBox="0 0 1024 1024" version="1.1" xmlns="http://www.w3.org/2000/svg" p-id="17743" xmlns:xlink="http://www.w3.org/1999/xlink" width="200" height="200"><path d="M885.058 692.679c-21.945 0.345-43.418-10.886-55.169-31.241-11.748-20.343-10.743-44.545 0.513-63.373a163.21 163.21 0 0 0-51.435-29.744c-10.671 19.182-31.139 32.166-54.647 32.166s-43.975-12.985-54.647-32.166c-19.011 6.742-36.401 16.902-51.437 29.744 11.257 18.828 12.264 43.028 0.515 63.373-11.751 20.355-33.224 31.586-55.169 31.241a164.304 164.304 0 0 0-2.701 29.708c0 10.148 0.931 20.075 2.701 29.707 21.945-0.345 43.418 10.887 55.169 31.242 11.747 20.347 10.746 44.546-0.515 63.376a163.247 163.247 0 0 0 51.437 29.742c10.673-19.183 31.141-32.166 54.648-32.166 23.506 0 43.975 12.984 54.647 32.167 19.011-6.742 36.401-16.902 51.434-29.742-11.256-18.829-12.26-43.029-0.513-63.376 11.751-20.355 33.224-31.587 55.169-31.242a164.26 164.26 0 0 0 2.701-29.707c0-10.145-0.932-20.072-2.701-29.707z m-160.739 98.037c-37.736 0-68.326-30.591-68.326-68.327s30.59-68.327 68.326-68.327c37.736 0 68.327 30.592 68.327 68.327-0.001 37.737-30.593 68.327-68.327 68.327zM639.221 548.959c11.532-12.711 10.576-32.364-2.135-43.896-27.018-24.51-56.892-43.927-88.319-57.75 48.065-35.29 79.329-92.181 79.329-156.246 0-106.827-86.912-193.738-193.74-193.738S240.617 184.24 240.617 291.067c0 64.005 31.207 120.85 79.193 156.146a309.723 309.723 0 0 0-14.725 6.963c-38.453 19.46-73.272 46.896-103.493 81.544-59.973 68.761-94.369 158.232-94.369 245.472 0 17.163 13.912 31.075 31.075 31.075s31.074-13.914 31.074-31.075c0-139.91 113.322-296.387 264.982-296.387 57.505 0 113.168 22.923 160.969 66.289 12.712 11.529 32.363 10.572 43.896-2.137zM302.768 291.067c0-72.557 59.031-131.588 131.589-131.588s131.589 59.03 131.589 131.588-59.031 131.589-131.589 131.589-131.589-59.032-131.589-131.589z" fill="#ffffff" p-id="17744"></path></svg>