<?xml version="1.0" standalone="no"?><!DOCTYPE svg PUBLIC "-//W3C//DTD SVG 1.1//EN" "http://www.w3.org/Graphics/SVG/1.1/DTD/svg11.dtd"><svg t="1767365715522" class="icon" viewBox="0 0 1024 1024" version="1.1" xmlns="http://www.w3.org/2000/svg" p-id="20378" xmlns:xlink="http://www.w3.org/1999/xlink" width="200" height="200"><path d="M874.412066 566.641311v320.394492l-31.391476-8.091278-20.715016-5.237509c-139.767607-34.832787-241.261115-52.307934-305.773115-52.307934-72.351475 0-192.629508 21.99082-362.76459 65.821377v-322.140328a27.026885 27.026885 0 0 1 21.587934-26.472918l57.61259-11.700459a33.57377 33.57377 0 1 0-12.82518-65.922098l-58.300852 11.851541a94.174426 94.174426 0 0 0-75.205246 92.227147v326.38741a63.874098 63.874098 0 0 0 79.855213 61.842885l20.631082-5.287869 20.093901-5.052852c145.542295-36.293246 249.150951-54.389508 309.315148-54.389508 65.485639 0 181.096918 21.453639 344.920131 64.495213a63.874098 63.874098 0 0 0 80.107017-61.775738V566.641311a94.174426 94.174426 0 0 0-78.025443-92.781114l-21.302557-3.944918-46.885771-9.064918a33.57377 33.57377 0 0 0-13.865967 65.653508l3.357377 0.671475 59.12341 11.398295 8.057705 1.443672a27.026885 27.026885 0 0 1 22.393705 26.624z" fill="#ffffff" p-id="20379"></path><path d="M534.410492 77.588984a33.57377 33.57377 0 0 1 6.41259 6.395803l89.57482 117.810361a33.57377 33.57377 0 0 0 15.662164 11.381508l139.734032 48.799475a33.57377 33.57377 0 0 1 16.518295 50.830689l-84.370885 121.604196a33.57377 33.57377 0 0 0-5.976131 18.398427l-3.223082 147.976393a33.57377 33.57377 0 0 1-43.243016 31.408262L523.75082 589.55541a33.57377 33.57377 0 0 0-19.355279 0l-141.714885 42.638688a33.57377 33.57377 0 0 1-43.243017-31.408262l-3.223082-147.976393a33.57377 33.57377 0 0 0-5.992918-18.398427l-84.354098-121.604196a33.57377 33.57377 0 0 1 16.518295-50.830689l139.717246-48.799475a33.57377 33.57377 0 0 0 15.662164-11.381508l89.591606-117.810361a33.57377 33.57377 0 0 1 47.036853-6.395803z m-20.312131 82.18859l-62.866886 82.658623a100.721311 100.721311 0 0 1-46.969705 34.127737l-98.035409 34.245246 59.190557 85.327738a100.721311 100.721311 0 0 1 17.94518 55.212066l2.26623 103.826885 99.445508-29.931017a100.721311 100.721311 0 0 1 58.049049 0l99.445508 29.931017 2.26623-103.826885a100.721311 100.721311 0 0 1 17.94518-55.228853l59.190558-85.310951-98.03541-34.245246a100.721311 100.721311 0 0 1-46.986492-34.127737l-62.850098-82.658623z" fill="#ffffff" p-id="20380"></path></svg>