<?xml version="1.0" standalone="no"?><!DOCTYPE svg PUBLIC "-//W3C//DTD SVG 1.1//EN" "http://www.w3.org/Graphics/SVG/1.1/DTD/svg11.dtd"><svg t="1767365663141" class="icon" viewBox="0 0 1024 1024" version="1.1" xmlns="http://www.w3.org/2000/svg" p-id="16532" xmlns:xlink="http://www.w3.org/1999/xlink" width="200" height="200"><path d="M630.358998 237.330802H272.22555a19.13106 19.13106 0 0 0-5.611778 0.510161l-5.611778 1.530485a15.968058 15.968058 0 0 0-5.101616 2.550808 13.774363 13.774363 0 0 0-4.081292 3.571132c-1.020323 1.530485-2.550808 2.550808-3.571132 4.081292a15.968058 15.968058 0 0 0-2.550808 5.101616 32.650343 32.650343 0 0 0-2.040646 11.223556v379.560236a19.13106 19.13106 0 0 0 0.510161 5.611777c0.510162 2.040646 1.020323 3.571131 1.530485 5.611778a15.968058 15.968058 0 0 0 2.550808 5.101616 13.774363 13.774363 0 0 0 3.571132 4.081293c1.530485 1.020323 2.550808 2.550808 4.081292 3.571131a15.968058 15.968058 0 0 0 5.101616 2.550808 18.059721 18.059721 0 0 0 5.611778 1.530485 22.85524 22.85524 0 0 0 5.611778 0.510162h142.84525v36.731635l-3.571131 3.571131-3.571132 3.571132-3.571131 3.571131-3.571131 3.571131-3.571131 3.571131-3.571132 3.571132-3.571131 3.571131-3.571131 3.571131a9.131893 9.131893 0 0 0-2.550808 3.571131 22.19203 22.19203 0 0 1-2.040647 3.571132 35.150135 35.150135 0 0 0-1.530484 4.081293 11.988798 11.988798 0 0 0-1.020324 4.081292c0 1.530485-0.510162 2.550808-0.510161 4.081293v4.081293c0 1.530485 0.510162 3.06097 0.510161 4.081293s1.020323 2.550808 1.530485 4.081293a15.304848 15.304848 0 0 0 2.040647 4.081293 15.304848 15.304848 0 0 0 2.550808 3.571131l3.060969 3.06097a9.131893 9.131893 0 0 0 3.571132 2.550808 12.805056 12.805056 0 0 0 3.571131 2.040646 35.150135 35.150135 0 0 0 4.081293 1.530485c1.530485 0.510162 2.550808 0.510162 4.081292 1.020323s3.06097 0.510162 4.081293 0.510162h199.98335a10.203232 10.203232 0 0 0 4.081293-0.510162 9.591038 9.591038 0 0 0 4.081293-1.020323c1.530485-0.510162 2.550808-1.020323 4.081293-1.530485s2.550808-1.530485 3.571131-2.040646a21.579836 21.579836 0 0 1 3.571131-2.550808l3.06097-3.06097a21.579836 21.579836 0 0 0 2.550808-3.571131 30.303599 30.303599 0 0 0 2.040647-4.081293c0.510162-1.530485 1.020323-2.550808 1.530484-4.081293a11.223555 11.223555 0 0 0 0.510162-4.081293v-4.081293a12.703024 12.703024 0 0 0-0.510162-4.081293c-0.510162-1.530485-0.510162-2.550808-1.020323-4.081292s-1.020323-2.550808-1.530485-4.081293-1.530485-2.550808-2.040646-3.571132-1.530485-2.040646-2.550808-3.571131l-3.571131-3.571131-3.571132-3.571131-3.571131-3.571132-3.571131-3.571131-3.571131-3.571131-3.571132-3.571131-3.571131-3.571132-3.571131-3.571131v-37.751959h146.926543a19.13106 19.13106 0 0 0 5.611777-0.510161l5.611778-1.530485a23.824547 23.824547 0 0 0 5.101616-2.550808 13.774363 13.774363 0 0 0 4.081293-3.571131c1.020323-1.530485 2.550808-2.550808 3.571131-4.081293a15.968058 15.968058 0 0 0 2.550808-5.101616 32.650343 32.650343 0 0 0 2.040647-11.223556v-378.029751a19.13106 19.13106 0 0 0-0.510162-5.611777c-0.510162-2.040646-1.020323-3.571131-1.530485-5.611778a15.968058 15.968058 0 0 0-2.550808-5.101616 13.774363 13.774363 0 0 0-3.571131-4.081293c-1.530485-1.020323-2.550808-2.550808-4.081293-3.571131a15.968058 15.968058 0 0 0-5.101616-2.550808 23.008288 23.008288 0 0 0-5.611778-1.530485c0.510162-0.510162-1.530485-1.020323-3.571131-1.020323h-119.377816z m-63.260039 510.671769H434.967103l2.550808-2.550808 2.550808-2.550809 2.550808-2.550808 2.550808-2.550808 2.550808-2.550808 2.550808-2.550808 2.550808-2.550808 2.550808-2.550808V673.569992h110.194907v53.056807l2.550808 2.550808 2.550808 2.550808 2.550808 2.550808 2.550808 2.550808 2.550808 2.550808 2.550808 2.550808 2.550808 2.550808 2.550808 3.571132z m163.251714-175.495593v53.566968H293.652337v-61.219392h436.698336z m0-258.141774v199.98335H293.652337V285.847171h436.698336z" p-id="16533" fill="#ffffff"></path><path d="M88.05721 690.660406a437.31053 437.31053 0 0 1-26.630436-86.727473A452.666394 452.666394 0 0 1 52.345897 511.287585 492.356967 492.356967 0 0 1 61.47779 418.489188a451.493022 451.493022 0 0 1 69.22893-164.986263 457.819026 457.819026 0 0 1 124.020287-124.020287A474.144198 474.144198 0 0 1 332.934781 86.884144a437.31053 437.31053 0 0 1 86.727473-26.630436A465.420434 465.420434 0 0 1 691.884488 86.884144a25.50808 25.50808 0 1 0 19.79427-47.0369A516.844724 516.844724 0 0 0 409.714103 10.359903a490.622418 490.622418 0 0 0-96.369528 29.589373 526.282714 526.282714 0 0 0-86.727473 47.189949A506.13133 506.13133 0 0 0 88.05721 225.239972 500.82565 500.82565 0 0 0 11.532969 408.285956a543.220079 543.220079 0 0 0-10.203233 102.797564 505.417104 505.417104 0 0 0 10.203233 102.797564 491.693757 491.693757 0 0 0 29.589373 96.369528 526.282714 526.282714 0 0 0 47.189948 86.727473 25.50808 25.50808 0 1 0 42.445446-28.262953 474.144198 474.144198 0 0 1-42.700526-78.054726zM1012.521058 410.020506a490.622418 490.622418 0 0 0-29.589373-96.369528 526.282714 526.282714 0 0 0-47.189949-86.727473 25.50808 25.50808 0 1 0-42.445446 28.313969 474.144198 474.144198 0 0 1 42.598495 78.411839 437.31053 437.31053 0 0 1 26.630435 86.727473 453.38062 453.38062 0 0 1 9.131893 92.696364 492.356967 492.356967 0 0 1-9.131893 92.696364A451.493022 451.493022 0 0 1 893.29629 770.500697a454.04383 454.04383 0 0 1-124.020286 124.020287 474.144198 474.144198 0 0 1-78.411839 42.598494 437.31053 437.31053 0 0 1-86.727474 26.630436 465.420434 465.420434 0 0 1-272.069185-26.630436 474.144198 474.144198 0 0 1-78.411839-42.598494 450.370667 450.370667 0 0 1-68.004542-56.117777 25.50808 25.50808 0 1 0-36.119442 36.068426 497.10147 497.10147 0 0 0 75.861031 62.341748 500.82565 500.82565 0 0 0 183.25005 76.524241 543.628209 543.628209 0 0 0 102.797563 10.203233 502.15207 502.15207 0 0 0 102.797564-10.203233 490.622418 490.622418 0 0 0 96.216479-29.079211 526.282714 526.282714 0 0 0 86.727474-47.189949 504.294749 504.294749 0 0 0 138.202779-138.202779 522.201421 522.201421 0 0 0 47.189949-86.727473 528.272344 528.272344 0 0 0 29.589373-96.369528 543.220079 543.220079 0 0 0 10.203232-102.797564 502.15207 502.15207 0 0 0-9.846119-102.950612zM769.276004 131.013123a447.66681 447.66681 0 0 1 68.004542 56.117777 25.50808 25.50808 0 0 0 36.119442-36.068426 499.397197 499.397197 0 0 0-75.861031-62.392765 25.50808 25.50808 0 1 0-28.262953 42.445446z" p-id="16534" fill="#ffffff"></path></svg>