<?xml version="1.0" standalone="no"?><!DOCTYPE svg PUBLIC "-//W3C//DTD SVG 1.1//EN" "http://www.w3.org/Graphics/SVG/1.1/DTD/svg11.dtd"><svg t="1767538387551" class="icon" viewBox="0 0 1024 1024" version="1.1" xmlns="http://www.w3.org/2000/svg" p-id="11857" xmlns:xlink="http://www.w3.org/1999/xlink" width="200" height="200"><path d="M587.6224 843.997867l172.561067 61.371733c12.8 4.539733 17.134933 1.399467 16.776533-12.1856l-5.034667-183.074133c-1.262933-45.397333 19.029333-107.861333 46.728534-143.872l111.684266-145.134934c8.277333-10.752 6.638933-15.872-6.4-19.712l-175.6672-51.780266c-43.554133-12.834133-96.682667-51.421867-122.368-88.917334l-103.543466-151.074133c-7.68-11.195733-13.038933-11.195733-20.718934 0l-103.543466 151.074133c-25.6512 37.461333-78.779733 76.066133-122.368 88.917334L100.061867 401.390933c-13.021867 3.84-14.677333 8.942933-6.4 19.712l111.684266 145.152c27.682133 35.976533 47.991467 98.423467 46.728534 143.854934l-5.034667 183.074133c-0.3584 13.568 3.976533 16.725333 16.776533 12.1856l172.544-61.371733c42.786133-15.2064 108.458667-15.223467 151.261867 0z m-22.869333 64.324266c-28.0064-9.966933-77.533867-9.949867-105.506134 0l-172.561066 61.354667c-58.026667 20.650667-109.568-16.878933-107.8784-78.370133l5.034666-183.074134c0.8192-29.730133-14.506667-76.8-32.597333-100.352l-111.684267-145.152c-37.546667-48.810667-17.800533-109.431467 41.198934-126.805333l175.6672-51.797333c28.5184-8.413867 68.573867-37.512533 85.367466-62.020267l103.543467-151.074133c34.816-50.7904 98.56-50.7392 133.3248 0l103.543467 151.074133c16.810667 24.5248 56.8832 53.623467 85.367466 62.020267l175.6672 51.780266c59.067733 17.408 78.711467 78.062933 41.198934 126.805334l-111.684267 145.169066c-18.1248 23.552-33.416533 70.656-32.597333 100.352l5.034666 183.074134c1.706667 61.559467-49.92 98.986667-107.861333 78.370133L564.736 908.322133z" fill="#ffffff" p-id="11858"></path><path d="M518.178133 360.9088a34.133333 34.133333 0 1 1 55.9104-39.150933l43.639467 62.344533a34.133333 34.133333 0 0 0 21.8624 13.994667l66.2528 12.049066a34.133333 34.133333 0 1 1-12.219733 67.1744l-66.2528-12.049066a102.4 102.4 0 0 1-65.570134-42.018134l-43.6224-62.344533z" fill="#ffffff" p-id="11859"></path></svg>