<?xml version="1.0" standalone="no"?><!DOCTYPE svg PUBLIC "-//W3C//DTD SVG 1.1//EN" "http://www.w3.org/Graphics/SVG/1.1/DTD/svg11.dtd"><svg t="1767365708057" class="icon" viewBox="0 0 1024 1024" version="1.1" xmlns="http://www.w3.org/2000/svg" p-id="19217" xmlns:xlink="http://www.w3.org/1999/xlink" width="200" height="200"><path d="M654 98.1H375.4C224.1 98.1 101 221.2 101 372.6v278.7c0 151.3 123.1 274.5 274.4 274.5h425.3c70.5 0 127.8-57.3 127.8-127.8V372.6c0-151.4-123.1-274.5-274.5-274.5z m217.1 699.8c0 38.8-31.6 70.4-70.4 70.4H375.4c-119.7 0-217.1-97.4-217.1-217.1V372.6c0-119.7 97.4-217.1 217.1-217.1H654c119.7 0 217.1 97.4 217.1 217.1v425.3z" p-id="19218" fill="#ffffff"></path><path d="M379.5 393.9h109.8c15.8 0 28.7-12.8 28.7-28.7 0-15.8-12.8-28.7-28.7-28.7H379.5c-61.2 0-111 49.8-111 111v128.7c0 61.2 49.8 111 111 111h109.8c15.8 0 28.7-12.8 28.7-28.7s-12.8-28.7-28.7-28.7H379.5c-29.6 0-53.7-24.1-53.7-53.7v-35.7h131.5c15.8 0 28.7-12.8 28.7-28.7S473.2 483 457.3 483H325.8v-35.7c0-29.3 24.1-53.4 53.7-53.4zM653.3 452.4c-59.3 0-107.6 48.3-107.6 107.6v97.8c0 15.8 12.8 28.7 28.7 28.7 15.8 0 28.7-12.8 28.7-28.7V560c0-27.7 22.5-50.2 50.2-50.2 27.7 0 50.2 22.5 50.2 50.2v97.8c0 15.8 12.8 28.7 28.7 28.7 15.8 0 28.7-12.8 28.7-28.7V560c0-59.4-48.2-107.6-107.6-107.6z" p-id="19219" fill="#ffffff"></path></svg>