<?xml version="1.0" standalone="no"?><!DOCTYPE svg PUBLIC "-//W3C//DTD SVG 1.1//EN" "http://www.w3.org/Graphics/SVG/1.1/DTD/svg11.dtd"><svg t="1767538366959" class="icon" viewBox="0 0 1024 1024" version="1.1" xmlns="http://www.w3.org/2000/svg" p-id="10426" xmlns:xlink="http://www.w3.org/1999/xlink" width="200" height="200"><path d="M946.086957 11.130435H221.495652v60.104348c0 15.582609 12.243478 27.826087 27.826087 27.826087s27.826087-12.243478 27.826087-27.826087V66.782609H890.434783v746.852174h-4.452174c-15.582609 0-27.826087 12.243478-27.826087 27.826087s12.243478 27.826087 27.826087 27.826087H946.086957V11.130435z" fill="#ffffff" p-id="10427"></path><path d="M277.147826 154.713043H77.913043V1012.869565h724.591305V154.713043H277.147826z m469.704348 658.92174V957.217391H133.565217V210.365217h613.286957v603.269566z" fill="#ffffff" p-id="10428"></path><path d="M624.417391 384h-367.304348c-15.582609 0-27.826087-12.243478-27.826086-27.826087s12.243478-27.826087 27.826086-27.826087h367.304348c15.582609 0 27.826087 12.243478 27.826087 27.826087s-13.356522 27.826087-27.826087 27.826087zM624.417391 524.243478h-367.304348c-15.582609 0-27.826087-12.243478-27.826086-27.826087s12.243478-27.826087 27.826086-27.826087h367.304348c15.582609 0 27.826087 12.243478 27.826087 27.826087s-13.356522 27.826087-27.826087 27.826087zM428.521739 664.486957H257.113043c-15.582609 0-27.826087-12.243478-27.826086-27.826087s12.243478-27.826087 27.826086-27.826087h172.52174c15.582609 0 27.826087 12.243478 27.826087 27.826087-1.113043 15.582609-13.356522 27.826087-28.939131 27.826087z" fill="#ffffff" p-id="10429"></path></svg>