<?xml version="1.0" standalone="no"?><!DOCTYPE svg PUBLIC "-//W3C//DTD SVG 1.1//EN" "http://www.w3.org/Graphics/SVG/1.1/DTD/svg11.dtd"><svg t="1767538263788" class="icon" viewBox="0 0 1024 1024" version="1.1" xmlns="http://www.w3.org/2000/svg" p-id="5548" xmlns:xlink="http://www.w3.org/1999/xlink" width="200" height="200"><path d="M704 170.666667a234.666667 234.666667 0 0 0-192 100.266666A234.666667 234.666667 0 0 0 85.333333 405.333333v411.306667a7.893333 7.893333 0 0 0 0 2.346667v2.773333a15.786667 15.786667 0 0 0 0 2.986667v1.28a12.586667 12.586667 0 0 0 1.28 2.986666v1.28l2.133334 2.986667v1.28l1.706666 1.92 1.493334 1.28v1.066667l1.92 1.493333 3.84 2.56h10.88l2.133333 1.28H143.573333l2.773334-1.493333h1.493333c6.826667-3.84 174.506667-93.44 342.613333 0h1.28a24.96 24.96 0 0 0 5.546667 2.133333H500.48a16.213333 16.213333 0 0 0 4.48 0H524.586667l4.48-1.92h1.92c6.826667-3.84 174.506667-93.44 342.613333 0h1.493333l6.826667 2.773333h2.56A37.12 37.12 0 0 0 896 853.333333a51.626667 51.626667 0 0 0 10.026667-1.28h2.56a42.666667 42.666667 0 0 0 7.253333-2.986666l1.493333-2.133334a37.12 37.12 0 0 0 8.106667-6.186666 36.693333 36.693333 0 0 0 5.973333-7.893334v-1.066666a7.68 7.68 0 0 1 0-1.92 25.386667 25.386667 0 0 0 1.706667-4.266667l1.28-3.84a22.613333 22.613333 0 0 0 0-4.053333 31.786667 31.786667 0 0 0 0-4.48V405.333333A234.666667 234.666667 0 0 0 704 170.666667zM170.666667 746.666667V405.333333a149.333333 149.333333 0 0 1 298.666666 0v339.413334A458.026667 458.026667 0 0 0 170.666667 746.666667z m384 0V405.333333a149.333333 149.333333 0 0 1 298.666666 0v339.413334A458.026667 458.026667 0 0 0 554.666667 746.666667z" p-id="5549" fill="#ffffff"></path></svg>