<?xml version="1.0" standalone="no"?><!DOCTYPE svg PUBLIC "-//W3C//DTD SVG 1.1//EN" "http://www.w3.org/Graphics/SVG/1.1/DTD/svg11.dtd"><svg t="1767538508910" class="icon" viewBox="0 0 1024 1024" version="1.1" xmlns="http://www.w3.org/2000/svg" p-id="15861" xmlns:xlink="http://www.w3.org/1999/xlink" width="200" height="200"><path d="M514.542933 207.684267a146.773333 146.773333 0 0 0-128.443733 217.8048 182.459733 182.459733 0 0 0-51.387733 94.3104h-3.6864a144.6912 144.6912 0 0 0-73.386667 19.643733 146.824533 146.824533 0 1 0 146.807467 253.969067 144.571733 144.571733 0 0 0 57.617066-61.2864c34.167467 10.274133 70.621867 10.274133 104.789334 0a143.8208 143.8208 0 0 0 57.8048 61.4912 146.807467 146.807467 0 1 0 73.4208-273.8176h-3.6864a183.5008 183.5008 0 0 0-51.387734-94.3104 146.773333 146.773333 0 0 0-128.4608-217.8048z m0 238.557866c-50.688 0-91.7504-41.079467-91.7504-91.767466s41.0624-91.7504 91.7504-91.7504a91.733333 91.733333 0 1 1 0 183.517866z m0 55.057067a146.824533 146.824533 0 0 0 92.842667-33.211733 127.112533 127.112533 0 0 1 33.041067 63.488 145.5104 145.5104 0 0 0-88.6272 146.807466c-11.8784 3.754667-24.234667 5.802667-36.693334 6.058667a126.72 126.72 0 0 1-36.7104-6.229333 144.247467 144.247467 0 0 0-18.3296-85.521067 146.961067 146.961067 0 0 0-69.7344-61.4912 128.341333 128.341333 0 0 1 33.041067-63.488 146.653867 146.653867 0 0 0 91.170133 33.5872z m183.517867 256.9216a91.784533 91.784533 0 0 1-46.148267-171.195733 91.733333 91.733333 0 1 1 125.405867 125.2864 91.818667 91.818667 0 0 1-79.2576 45.909333z m-367.035733 0a91.7504 91.7504 0 1 1 45.7216-12.288 92.416 92.416 0 0 1-45.7216 12.288z m0 0" fill="#ffffff" p-id="15862"></path></svg>