<?xml version="1.0" standalone="no"?><!DOCTYPE svg PUBLIC "-//W3C//DTD SVG 1.1//EN" "http://www.w3.org/Graphics/SVG/1.1/DTD/svg11.dtd"><svg t="1768129327301" class="icon" viewBox="0 0 1024 1024" version="1.1" xmlns="http://www.w3.org/2000/svg" p-id="18539" xmlns:xlink="http://www.w3.org/1999/xlink" width="200" height="200"><path d="M726.521506 0a35.929459 35.929459 0 0 1 35.677952 31.761642L762.450965 35.929459v74.841063h166.065959a35.929459 35.929459 0 0 1 4.203747 71.607412l-4.203747 0.251506h-193.695713l-167.036055 133.442011 31.114911 233.541483 128.016663-98.662295a35.139011 35.139011 0 0 1 17.21021-7.149962l4.70676-0.323365h131.861114a35.929459 35.929459 0 0 1 4.167817 71.607412l-4.167817 0.251506h-119.645098l-133.945023 103.297194a36.145036 36.145036 0 0 1-18.036589 7.257751l43.510575 326.239488H978.027718a35.929459 35.929459 0 0 1 4.203747 71.607411L978.027718 1023.98958H43.861785a35.929459 35.929459 0 0 1-4.203746-71.607411L43.861785 952.130663h324.910098l21.701393-222.51114-77.499843-59.714761-128.411886 0.03593a35.965388 35.965388 0 0 1-35.713883-31.761642l-0.215576-4.167817a35.929459 35.929459 0 0 1 31.725712-35.713882l4.203747-0.215577h140.699761a35.929459 35.929459 0 0 1 18.000659 4.814547l3.916311 2.65878 51.522844 39.702053 15.95268-163.622757-132.651563-53.031881a35.929459 35.929459 0 0 1-16.56348-13.509477l-2.227627-3.808522L201.268745 287.435672H79.791244a35.929459 35.929459 0 0 1-4.203746-71.607412L79.791244 215.576754h85.548042L119.493296 123.848845a35.929459 35.929459 0 0 1 62.193894-35.785741l2.119838 3.664805 137.573898 275.219655 100.530626 40.169136 16.276045-166.892337-134.879189-103.979855a35.929459 35.929459 0 0 1 40.133206-59.427325l3.736664 2.515062 99.237165 76.529748 12.036369-123.417692a35.929459 35.929459 0 0 1 70.529528-5.748713l0.826378 4.491182 26.875235 201.743912L690.592047 125.968683V35.929459a35.929459 35.929459 0 0 1 35.929459-35.929459" fill="#ffffff" p-id="18540"></path></svg>